<?xml version="1.0" encoding="UTF-8" standalone="no"?>
<svg
   width="48"
   height="41"
   viewBox="0 0 48 41"
   version="1.1"
   preserveAspectRatio="xMidYMid meet"
   id="svg10"
   sodipodi:docname="plane-svgrepo-com.svg"
   inkscape:version="1.1.1 (3bf5ae0d25, 2021-09-20)"
   xmlns:inkscape="http://www.inkscape.org/namespaces/inkscape"
   xmlns:sodipodi="http://sodipodi.sourceforge.net/DTD/sodipodi-0.dtd"
   xmlns="http://www.w3.org/2000/svg"
   xmlns:svg="http://www.w3.org/2000/svg"
   xmlns:rdf="http://www.w3.org/1999/02/22-rdf-syntax-ns#"
   xmlns:cc="http://creativecommons.org/ns#"
   xmlns:dc="http://purl.org/dc/elements/1.1/">
  <defs
     id="defs14" />
  <sodipodi:namedview
     id="namedview12"
     pagecolor="#505050"
     bordercolor="#eeeeee"
     borderopacity="1"
     inkscape:pageshadow="0"
     inkscape:pageopacity="0"
     inkscape:pagecheckerboard="0"
     showgrid="false"
     inkscape:zoom="5.7777778"
     inkscape:cx="4.8461538"
     inkscape:cy="18.605769"
     inkscape:window-width="1920"
     inkscape:window-height="1017"
     inkscape:window-x="1432"
     inkscape:window-y="-8"
     inkscape:window-maximized="1"
     inkscape:current-layer="g1032" />
  <title
     id="title2">plane-line</title>
  <metadata
     id="metadata831">
    <rdf:RDF>
      <cc:Work
         rdf:about="">
        <dc:title>plane-line</dc:title>
      </cc:Work>
    </rdf:RDF>
  </metadata>
  <g
     id="g910"
     transform="matrix(0.0550867,0,0,0.0550867,-31.563523,35.274604)">
    <g
       id="g849"
       transform="translate(1011.6919,-320.47384)">
	<g
   id="g847">
		<g
   id="g845">
			
			
			
			
			
			<g
   id="g1032"
   transform="translate(0,-81.68941)">
  <g
     id="g1044"
     transform="translate(0,3.1419004)">
    <path
       class="clr-i-outline clr-i-outline-path-1"
       d="m 35.77,8.16 a 2.43,2.43 0 0 0 -1.9,-2 L 28,4.87 A 4.5,4.5 0 0 0 24.35,5.66 L 7,18.3 2.14,18.1 a 1.86,1.86 0 0 0 -1.23,3.31 l 5,3.93 c 0.6,0.73 1,0.59 10.93,-4.82 l 0.93,9.42 a 1.36,1.36 0 0 0 0.85,1.18 1.43,1.43 0 0 0 0.54,0.1 1.54,1.54 0 0 0 1,-0.41 l 2.39,-2.18 A 1.52,1.52 0 0 0 23.01,27.8 L 25.2,15.9 c 3.57,-2 6.95,-3.88 9.36,-5.25 a 2.43,2.43 0 0 0 1.21,-2.49 z m -2.2,0.75 c -2.5,1.42 -6,3.41 -9.76,5.47 L 23.4,14.61 21.07,27.28 19.6,28.62 18.5,17.32 17.17,18 C 10,22 7.61,23.16 6.79,23.52 l -4.3,-3.41 5.08,0.22 18,-13.06 a 2.51,2.51 0 0 1 2,-0.45 l 5.85,1.26 a 0.43,0.43 0 0 1 0.35,0.37 0.42,0.42 0 0 1 -0.2,0.46 z"
       id="path4"
       transform="matrix(18.153202,0,0,18.153202,-438.71289,-319.87318)" />
    <path
       class="clr-i-outline clr-i-outline-path-2"
       d="m 7,12.54 3.56,1 1.64,-1.19 -4,-1.16 1.8,-1.1 5.47,-0.16 2.3,-1.67 L 10,8.5 A 1.25,1.25 0 0 0 9.3,8.67 L 6.67,10.2 A 1.28,1.28 0 0 0 7,12.54 Z"
       id="path6"
       transform="matrix(18.153202,0,0,18.153202,-438.71289,-319.87318)" />
    <rect
       x="0"
       y="0"
       width="36"
       height="36"
       fill-opacity="0"
       id="rect8"
       transform="matrix(18.153202,0,0,18.153202,-438.71289,-319.87318)" />
    <g
       id="g1017"
       transform="translate(1.5709502,-4.7128506)">
      <path
         d="M 420.5,0 H 148 c -2.652,0 -5.196,1.054 -7.071,2.929 l -66.5,66.5 C 72.554,71.305 71.5,73.848 71.5,76.5 V 492 c 0,5.522 4.477,10 10,10 h 339 c 5.523,0 10,-4.478 10,-10 V 10 c 0,-5.522 -4.477,-10 -10,-10 z m -10,482 H 91.5 V 80.643 L 152.142,20 H 410.5 Z"
         id="path833" />
      <path
         d="m 132,121 c 0,5.522 4.477,10 10,10 h 150 c 5.523,0 10,-4.478 10,-10 0,-5.522 -4.477,-10 -10,-10 H 142 c -5.523,0 -10,4.478 -10,10 z"
         id="path835" />
      <path
         d="M 360,181 H 142 c -5.523,0 -10,4.478 -10,10 0,5.522 4.477,10 10,10 h 218 c 5.523,0 10,-4.478 10,-10 0,-5.522 -4.477,-10 -10,-10 z"
         id="path837" />
      <path
         d="M 360,251 H 142 c -5.523,0 -10,4.478 -10,10 0,5.522 4.477,10 10,10 h 218 c 5.523,0 10,-4.478 10,-10 0,-5.522 -4.477,-10 -10,-10 z"
         id="path839" />
      <path
         d="M 360,321 H 142 c -5.523,0 -10,4.478 -10,10 0,5.522 4.477,10 10,10 h 218 c 5.523,0 10,-4.478 10,-10 0,-5.522 -4.477,-10 -10,-10 z"
         id="path841" />
      <path
         d="m 330,131 h 30 c 5.523,0 10,-4.478 10,-10 0,-5.522 -4.477,-10 -10,-10 h -30 c -5.523,0 -10,4.478 -10,10 0,5.522 4.477,10 10,10 z"
         id="path843" />
    </g>
  </g>
</g>

		</g>

	</g>

</g>
    <g
       id="g851">
</g>
    <g
       id="g853">
</g>
    <g
       id="g855">
</g>
    <g
       id="g857">
</g>
    <g
       id="g859">
</g>
    <g
       id="g861">
</g>
    <g
       id="g863">
</g>
    <g
       id="g865">
</g>
    <g
       id="g867">
</g>
    <g
       id="g869">
</g>
    <g
       id="g871">
</g>
    <g
       id="g873">
</g>
    <g
       id="g875">
</g>
    <g
       id="g877">
</g>
    <g
       id="g879">
</g>
  </g>
</svg>
