<?xml version="1.0" encoding="UTF-8" standalone="no"?>
<svg
   width="42"
   height="37"
   viewBox="0 0 42 37"
   version="1.1"
   preserveAspectRatio="xMidYMid meet"
   id="svg10"
   sodipodi:docname="plane-svgrepo-com.svg"
   inkscape:version="1.1.1 (3bf5ae0d25, 2021-09-20)"
   xmlns:inkscape="http://www.inkscape.org/namespaces/inkscape"
   xmlns:sodipodi="http://sodipodi.sourceforge.net/DTD/sodipodi-0.dtd"
   xmlns="http://www.w3.org/2000/svg"
   xmlns:svg="http://www.w3.org/2000/svg"
   xmlns:rdf="http://www.w3.org/1999/02/22-rdf-syntax-ns#"
   xmlns:cc="http://creativecommons.org/ns#"
   xmlns:dc="http://purl.org/dc/elements/1.1/">
  <defs
     id="defs14" />
  <sodipodi:namedview
     id="namedview12"
     pagecolor="#505050"
     bordercolor="#eeeeee"
     borderopacity="1"
     inkscape:pageshadow="0"
     inkscape:pageopacity="0"
     inkscape:pagecheckerboard="0"
     showgrid="false"
     inkscape:zoom="5.7777778"
     inkscape:cx="64.038461"
     inkscape:cy="22.240385"
     inkscape:window-width="1920"
     inkscape:window-height="1017"
     inkscape:window-x="1432"
     inkscape:window-y="-8"
     inkscape:window-maximized="1"
     inkscape:current-layer="svg10" />
  <title
     id="title2">plane-line</title>
  <metadata
     id="metadata831">
    <rdf:RDF>
      <cc:Work
         rdf:about="">
        <dc:title>plane-line</dc:title>
      </cc:Work>
    </rdf:RDF>
  </metadata>
  <g
     id="g860"
     transform="translate(0.17307692,-18.173077)">
    <g
       id="g851"
       transform="translate(0.51923077,18.692308)">
      <path
         class="clr-i-outline clr-i-outline-path-1"
         d="m 35.77,8.16 a 2.43,2.43 0 0 0 -1.9,-2 L 28,4.87 A 4.5,4.5 0 0 0 24.35,5.66 L 7,18.3 2.14,18.1 a 1.86,1.86 0 0 0 -1.23,3.31 l 5,3.93 c 0.6,0.73 1,0.59 10.93,-4.82 l 0.93,9.42 a 1.36,1.36 0 0 0 0.85,1.18 1.43,1.43 0 0 0 0.54,0.1 1.54,1.54 0 0 0 1,-0.41 l 2.39,-2.18 A 1.52,1.52 0 0 0 23.01,27.8 L 25.2,15.9 c 3.57,-2 6.95,-3.88 9.36,-5.25 a 2.43,2.43 0 0 0 1.21,-2.49 z m -2.2,0.75 c -2.5,1.42 -6,3.41 -9.76,5.47 L 23.4,14.61 21.07,27.28 19.6,28.62 18.5,17.32 17.17,18 C 10,22 7.61,23.16 6.79,23.52 l -4.3,-3.41 5.08,0.22 18,-13.06 a 2.51,2.51 0 0 1 2,-0.45 l 5.85,1.26 a 0.43,0.43 0 0 1 0.35,0.37 0.42,0.42 0 0 1 -0.2,0.46 z"
         id="path4" />
      <path
         class="clr-i-outline clr-i-outline-path-2"
         d="m 7,12.54 3.56,1 1.64,-1.19 -4,-1.16 1.8,-1.1 5.47,-0.16 2.3,-1.67 L 10,8.5 A 1.25,1.25 0 0 0 9.3,8.67 L 6.67,10.2 A 1.28,1.28 0 0 0 7,12.54 Z"
         id="path6" />
      <rect
         x="0"
         y="0"
         width="36"
         height="36"
         fill-opacity="0"
         id="rect8" />
    </g>
    <g
       id="g837"
       transform="matrix(0.03185096,0,0,0.03185096,27.067307,34.596161)">
      <path
         d="M 432,224 H 384 V 128 C 384,57.422 326.578,0 256,0 185.422,0 128,57.422 128,128 v 96 H 80 c -8.836,0 -16,7.164 -16,16 v 256 c 0,8.836 7.164,16 16,16 h 352 c 8.836,0 16,-7.164 16,-16 V 240 c 0,-8.836 -7.164,-16 -16,-16 z M 160,128 c 0,-52.938 43.063,-96 96,-96 52.937,0 96,43.063 96,96 v 96 h -16 v -96 c 0,-44.109 -35.891,-80 -80,-80 -44.109,0 -80,35.891 -80,80 v 96 h -16 z m 48,96 v -96 c 0,-26.469 21.531,-48 48,-48 26.469,0 48,21.531 48,48 v 96 z M 416,480 H 96 V 256 h 320 z"
         id="path833" />
      <path
         d="m 256,304.002 c -17.673,0 -32,14.326 -32,32 0,11.814 6.476,22.018 16,27.561 v 36.439 c 0,8.836 7.163,16 16,16 8.837,0 16,-7.164 16,-16 v -36.439 c 9.524,-5.543 16,-15.747 16,-27.561 0,-17.674 -14.327,-32 -32,-32 z"
         id="path835" />
    </g>
  </g>
</svg>
