<?xml version="1.0" encoding="UTF-8" standalone="no"?>
<!-- Generator: Adobe Illustrator 19.0.0, SVG Export Plug-In . SVG Version: 6.00 Build 0)  -->

<svg
   version="1.1"
   id="Layer_1"
   x="0px"
   y="0px"
   viewBox="0 0 470 596"
   xml:space="preserve"
   sodipodi:docname="document-svgrepo-com.svg"
   width="470"
   height="596"
   inkscape:version="1.1.1 (3bf5ae0d25, 2021-09-20)"
   xmlns:inkscape="http://www.inkscape.org/namespaces/inkscape"
   xmlns:sodipodi="http://sodipodi.sourceforge.net/DTD/sodipodi-0.dtd"
   xmlns="http://www.w3.org/2000/svg"
   xmlns:svg="http://www.w3.org/2000/svg"><defs
   id="defs53" /><sodipodi:namedview
   id="namedview51"
   pagecolor="#505050"
   bordercolor="#eeeeee"
   borderopacity="1"
   inkscape:pageshadow="0"
   inkscape:pageopacity="0"
   inkscape:pagecheckerboard="0"
   showgrid="false"
   inkscape:zoom="0.58596897"
   inkscape:cx="-22.185475"
   inkscape:cy="205.64229"
   inkscape:window-width="1920"
   inkscape:window-height="1017"
   inkscape:window-x="1432"
   inkscape:window-y="-8"
   inkscape:window-maximized="1"
   inkscape:current-layer="Layer_1" />
<g
   id="g18"
   transform="translate(39.251225,1.706575)">
	<g
   id="g16">
		<g
   id="g14">
			<path
   d="M 420.5,0 H 148 c -2.652,0 -5.196,1.054 -7.071,2.929 l -66.5,66.5 C 72.554,71.305 71.5,73.848 71.5,76.5 V 492 c 0,5.522 4.477,10 10,10 h 339 c 5.523,0 10,-4.478 10,-10 V 10 c 0,-5.522 -4.477,-10 -10,-10 z m -10,482 H 91.5 V 80.643 L 152.142,20 H 410.5 Z"
   id="path2" />
			<path
   d="m 132,121 c 0,5.522 4.477,10 10,10 h 150 c 5.523,0 10,-4.478 10,-10 0,-5.522 -4.477,-10 -10,-10 H 142 c -5.523,0 -10,4.478 -10,10 z"
   id="path4" />
			<path
   d="M 360,181 H 142 c -5.523,0 -10,4.478 -10,10 0,5.522 4.477,10 10,10 h 218 c 5.523,0 10,-4.478 10,-10 0,-5.522 -4.477,-10 -10,-10 z"
   id="path6" />
			<path
   d="M 360,251 H 142 c -5.523,0 -10,4.478 -10,10 0,5.522 4.477,10 10,10 h 218 c 5.523,0 10,-4.478 10,-10 0,-5.522 -4.477,-10 -10,-10 z"
   id="path8" />
			<path
   d="M 360,321 H 142 c -5.523,0 -10,4.478 -10,10 0,5.522 4.477,10 10,10 h 218 c 5.523,0 10,-4.478 10,-10 0,-5.522 -4.477,-10 -10,-10 z"
   id="path10" />
			<path
   d="m 330,131 h 30 c 5.523,0 10,-4.478 10,-10 0,-5.522 -4.477,-10 -10,-10 h -30 c -5.523,0 -10,4.478 -10,10 0,5.522 4.477,10 10,10 z"
   id="path12" />
		</g>
	</g>
</g>
<g
   id="g20">
</g>
<g
   id="g22">
</g>
<g
   id="g24">
</g>
<g
   id="g26">
</g>
<g
   id="g28">
</g>
<g
   id="g30">
</g>
<g
   id="g32">
</g>
<g
   id="g34">
</g>
<g
   id="g36">
</g>
<g
   id="g38">
</g>
<g
   id="g40">
</g>
<g
   id="g42">
</g>
<g
   id="g44">
</g>
<g
   id="g46">
</g>
<g
   id="g48">
</g>
<g
   id="g1079"
   transform="matrix(0.47158744,0,0,0.47158744,-34.552419,433.04913)"><g
     id="g1021"
     transform="translate(79.613338,-3.6187881)">
	<g
   id="g1019">
		<g
   id="g1013">
			<path
   d="m 172.785,0 h -15.583 v 82.164 h 31.156 V 32.018 c 71.392,7.773 126.035,67.902 126.035,140.768 0,78.096 -63.531,141.626 -141.608,141.626 -78.08,0 -141.608,-63.53 -141.608,-141.626 0,-31.963 10.386,-62.123 30.024,-87.211 L 66.692,78.58 42.145,59.37 36.666,66.366 C 12.679,96.993 0,133.796 0,172.785 0,268.054 77.507,345.57 172.785,345.57 268.054,345.57 345.57,268.066 345.57,172.785 345.57,77.507 268.054,0 172.785,0 Z"
   id="path1011" />
		</g>
		<g
   id="g1017">
			<path
   d="m 147.949,199.257 c 5.645,6.768 13.577,10.924 22.314,11.704 1.009,0.096 2.017,0.144 3.008,0.144 16.858,0 31.264,-13.174 32.777,-29.97 0.792,-8.749 -1.874,-17.297 -7.512,-24.073 -5.645,-6.776 -13.571,-10.938 -22.332,-11.736 -2.88,-0.252 -5.801,-0.099 -8.905,0.511 L 72.132,65.187 142.04,167.923 c -0.879,2.558 -1.414,4.945 -1.625,7.269 -0.791,8.747 1.884,17.298 7.534,24.065 z"
   id="path1015" />
		</g>
	</g>
</g><g
     id="g1023">
</g><g
     id="g1025">
</g><g
     id="g1027">
</g><g
     id="g1029">
</g><g
     id="g1031">
</g><g
     id="g1033">
</g><g
     id="g1035">
</g><g
     id="g1037">
</g><g
     id="g1039">
</g><g
     id="g1041">
</g><g
     id="g1043">
</g><g
     id="g1045">
</g><g
     id="g1047">
</g><g
     id="g1049">
</g><g
     id="g1051">
</g></g></svg>
