<?xml version="1.0" encoding="UTF-8" standalone="no"?>
<!-- Created with Inkscape (http://www.inkscape.org/) -->

<svg
   width="142mm"
   height="73mm"
   viewBox="0 0 142 73"
   version="1.1"
   id="svg825"
   inkscape:version="1.1.1 (3bf5ae0d25, 2021-09-20)"
   sodipodi:docname="LogoFlyByLight.svg"
   xmlns:inkscape="http://www.inkscape.org/namespaces/inkscape"
   xmlns:sodipodi="http://sodipodi.sourceforge.net/DTD/sodipodi-0.dtd"
   xmlns="http://www.w3.org/2000/svg"
   xmlns:svg="http://www.w3.org/2000/svg">
  <sodipodi:namedview
     id="namedview827"
     pagecolor="#505050"
     bordercolor="#eeeeee"
     borderopacity="1"
     inkscape:pageshadow="0"
     inkscape:pageopacity="0"
     inkscape:pagecheckerboard="0"
     inkscape:document-units="mm"
     showgrid="false"
     inkscape:zoom="0.74118967"
     inkscape:cx="221.2659"
     inkscape:cy="140.98955"
     inkscape:window-width="1440"
     inkscape:window-height="837"
     inkscape:window-x="-8"
     inkscape:window-y="159"
     inkscape:window-maximized="1"
     inkscape:current-layer="g1483" />
  <defs
     id="defs822" />
  <g
     inkscape:label="Warstwa 1"
     inkscape:groupmode="layer"
     id="layer1">
    <g
       id="g1483"
       transform="translate(-29.717849,-92.990987)"
       style="fill:#ffffff">
      <text
         xml:space="preserve"
         style="font-size:50.8px;line-height:1.25;font-family:'Work Sans';-inkscape-font-specification:'Work Sans';stroke-width:0.264583;fill:#e9ecef;fill-opacity:1"
         x="28.557693"
         y="154.92548"
         id="text2362"><tspan
           sodipodi:role="line"
           id="tspan2360"
           style="font-style:italic;font-variant:normal;font-weight:600;font-stretch:normal;font-size:50.8px;font-family:'Work Sans';-inkscape-font-specification:'Work Sans Semi-Bold Italic';stroke-width:0.264583;fill:#e9ecef;fill-opacity:1"
           x="28.557693"
           y="154.92548">FlyBy</tspan></text>
      <path
         style="fill:#e9ecef;stroke:#ffffff;stroke-width:0.264583px;stroke-linecap:butt;stroke-linejoin:miter;stroke-opacity:1;fill-opacity:1"
         d="m 74.222179,160.5079 c 0,0 -8.882359,-3.76305 -11.548923,-5.33593 -2.084945,-1.22981 -4.135213,-2.59016 -5.861175,-4.28736 -1.739411,-1.71042 -3.115438,-3.77167 -4.41942,-5.8334 -0.611725,-0.9672 -1.584044,-3.04597 -1.584044,-3.04597 l -5.75074,0.006 c 0,0 1.153816,3.52494 2.074537,5.11949 1.287876,2.23041 2.958369,4.24407 4.751303,6.09305 2.081184,2.14624 4.455196,4.00894 6.899566,5.7302 1.710886,1.20476 3.527823,2.26768 5.403643,3.19498 1.946883,0.96243 6.519648,2.68255 6.519648,2.68255 z"
         id="path10154"
         sodipodi:nodetypes="csssccsssscc" />
      <path
         style="fill:#e9ecef;stroke:#ffffff;stroke-width:0.264583px;stroke-linecap:butt;stroke-linejoin:miter;stroke-opacity:1;fill-opacity:1"
         d="m 45.171717,134.84192 5.458594,0.008 c 0,0 0.285753,-2.21018 0.592022,-3.27716 0.286672,-0.99871 0.728115,-1.94806 1.15716,-2.89438 0.174797,-0.38554 0.576265,-1.13167 0.576265,-1.13167 l -5.278733,0.0205 c 0,0 -0.81957,1.43346 -1.111184,2.1886 -0.340402,0.88148 -0.699536,1.85096 -0.919603,2.7699 -0.182426,0.76176 -0.474521,2.31581 -0.474521,2.31581 z"
         id="path10269"
         sodipodi:nodetypes="ccssccsscc" />
      <path
         style="fill:#e9ecef;stroke:#ffffff;stroke-width:0.264583px;stroke-linecap:butt;stroke-linejoin:miter;stroke-opacity:1;fill-opacity:1"
         d="m 50.260614,120.74357 5.000707,-0.005 c 0,0 0.751871,-0.99545 1.222057,-1.44787 1.363528,-1.31201 2.916642,-2.52922 4.510411,-3.54926 1.878066,-1.20199 3.866168,-2.74427 5.958436,-3.60621 3.084979,-1.2709 6.091705,-2.17069 9.359888,-2.84245 6.741248,-1.38564 13.974644,-2.29042 20.688976,-2.879 4.700501,-0.41205 9.632341,-0.60407 14.350581,-0.65637 5.04872,-0.056 10.19232,-0.19822 15.23755,-0.39426 4.03824,-0.15691 6.32529,-0.0538 12.73751,-0.56048 5.80703,-0.45884 7.25091,-0.42571 11.19025,-1.49733 3.6354,-0.98894 10.55672,-3.930635 10.55672,-3.930635 0,0 -6.36597,1.668765 -9.60826,2.201255 -3.08988,0.50746 -6.22006,0.76854 -9.34658,0.94105 -4.87337,0.2689 -9.76128,0.0803 -14.64163,0.1449 -4.12904,0.0546 -8.27306,0.11358 -12.40128,0.13297 -5.84759,0.0275 -11.68992,-0.13776 -17.523131,0.27294 -4.8848,0.34391 -9.533401,0.68898 -14.367472,1.48204 -5.075136,0.8326 -10.191247,1.72118 -15.04434,3.42345 -3.319965,1.16451 -6.103816,2.30326 -9.006548,4.29133 -1.955806,1.33952 -3.840461,2.64201 -5.421254,4.23673 -1.271245,1.28245 -3.452591,4.24175 -3.452591,4.24175 z"
         id="path10271"
         sodipodi:nodetypes="ccssssssssscssssssssscc" />
      <path
         style="fill:#e9ecef;stroke:#000000;stroke-width:0.0911297px;stroke-linecap:butt;stroke-linejoin:miter;stroke-opacity:1;fill-opacity:1"
         d="m 161.73475,98.991547 -0.0195,2.087543 0.48907,-0.30902 0.60324,-1.573329 2.65851,-1.25716 0.72048,4.399119 0.5426,-0.29962 0.88963,-4.996513 2.74278,-1.391305 0.22755,-0.15198 0.28738,-0.310282 0.26475,-0.43895 0.15574,-0.377575 -0.025,-0.121368 -0.0882,-0.125847 -0.19005,-0.08638 -0.43304,-0.08498 -0.40116,-0.03416 -0.3666,0.05802 -0.28388,0.07698 -2.6943,1.366724 -4.54031,-2.260401 -0.56719,0.251151 3.10705,3.182408 -2.59937,1.397763 -1.6503,-0.466737 -0.52363,0.216876 z"
         id="path869" />
    </g>
  </g>
</svg>
